<?xml version="1.0" encoding="UTF-8"?>
<svg width="362px" height="121px" viewBox="0 0 362 121" version="1.1" xmlns="http://www.w3.org/2000/svg" xmlns:xlink="http://www.w3.org/1999/xlink">
    <!-- Generator: Sketch 51.1 (57501) - http://www.bohemiancoding.com/sketch -->
    <title>Logo Wrike</title>
    <desc>Created with Sketch.</desc>
    <defs>
        <polygon id="path-1" points="33.7640094 70.9297629 66.9144279 70.9297629 66.9144279 0.132893766 0.613590869 0.132893766 0.613590869 70.9297629 33.7640094 70.9297629"></polygon>
    </defs>
    <g id="Finished-Layout" stroke="none" stroke-width="1" fill="none" fill-rule="evenodd">
        <g id="logo_gray__500x500" transform="translate(-71.000000, -184.000000)">
            <g id="Logo-Wrike" transform="translate(71.000000, 184.000000)">
                <g id="Page-1">
                    <polygon id="Fill-1" fill="#647883" points="62.3178227 23.3566765 41.0054824 88.1132438 21.5839821 23.6300096 0 23.6300096 31.6968686 119.807296 48.8280558 119.807296 69.8705297 56.0091924 90.5082041 119.807296 107.639391 119.807296 139.471193 23.6300096 118.295561 23.6300096 98.8705102 88.1132438 77.4250122 23.3566765"></polygon>
                    <g id="Group-15" transform="translate(140.259487, 0.173714)">
                        <path d="M0.445457029,119.633941 L0.445457029,51.4625086 L19.4603824,51.4625086 L19.4603824,66.4940308 C25.3388528,48.8892213 45.0905843,51.5038682 45.0905843,51.5038682 L45.0905843,70.3548608 C45.0905843,70.3548608 19.4603824,68.4271431 19.4603824,89.5313356 L19.4603824,119.633941 L0.445457029,119.633941 Z" id="Fill-2" fill="#647883"></path>
                        <polygon id="Fill-4" fill="#647883" points="53.9878295 119.633941 53.9878295 77.650337 73.0027549 59.2794755 73.0027549 119.633941"></polygon>
                        <polygon id="Fill-6" fill="#647883" points="88.9598459 119.633941 88.9598459 44.355848 107.974771 25.1272241 107.974771 76.3268294 131.176176 51.4625086 154.510738 51.4625086 125.240892 82.2016927 159.098466 119.633941 134.54773 119.633941 107.974771 90.2632209 107.974771 119.633941"></polygon>
                        <g id="Group-10" transform="translate(154.462979, 49.552590)">
                            <mask id="mask-2" fill="white">
                                <use xlink:href="#path-1"></use>
                            </mask>
                            <g id="Clip-9"></g>
                            <path d="M48.4065672,28.5865097 C48.0088694,21.1687529 42.8157175,15.1014774 34.4267798,15.1014774 C25.9100107,15.1014774 20.1824524,20.631078 19.2503483,28.5865097 L48.4065672,28.5865097 Z M11.2626593,61.219245 C4.205299,54.7473645 0.613590869,46.1175912 0.613590869,35.4629951 C0.613590869,25.486337 3.80760121,17.124502 10.1956219,10.3810867 C16.5871934,3.5046014 24.9779065,0.132893766 35.2275017,0.132893766 C44.9462413,0.132893766 52.5344571,3.63946971 58.26024,10.5177533 C63.9842474,17.3942386 66.9154931,25.7542753 66.9154931,35.7345299 L66.9154931,40.722859 L19.2503483,40.722859 C21.2459389,49.8921055 29.7680343,54.7473645 41.4841401,54.7473645 C48.9409736,54.7473645 55.9965584,52.7225417 62.7876032,48.8149573 L62.7876032,64.0514794 C56.7972803,68.6370018 48.4065672,70.9297629 37.4911833,70.9297629 C27.1048795,70.9297629 18.3182441,67.6929236 11.2626593,61.219245 L11.2626593,61.219245 Z" id="Fill-8" fill="#647883" mask="url(#mask-2)"></path>
                        </g>
                        <polygon id="Fill-11" fill="#00A550" points="92.6538191 0.624170518 50.1179104 43.706502 62.7590186 56.5099998 117.93426 0.624170518"></polygon>
                        <polygon id="Fill-13" fill="#A5CD38" points="55.1624583 23.2119143 29.8837928 23.2119143 62.7577758 56.5099998 75.3971086 43.706502"></polygon>
                    </g>
                </g>
            </g>
        </g>
    </g>
</svg>